PathFileType	4	(X/Y/Z)	C:\Users\Biomechanik\SynologyDrive\AlexP\Athlete_03\Athlete_3_25_03_31\Deadlift_35kg_01\marker_experimental.trc
DataRate	CameraRate	NumFrames	NumMarkers	Units	OrigDataRate	OrigDataStartFrame	OrigNumFrames
200.000000	200.000000	4	55	mm	200.000000	1802	2060
Frame#	Time	BL			BR			GLAB			RFHD			LFHD			C7			T6			SPINMOL			SPINM2			SPINM3			T12			BELTOL			BELT2			BELT3			SACROL			SACR2			SACR3			LTHOL			LTH2			LTH3			LSHAOL			LSHA2			LSHA3			LHEE			LTOE			LM5			RTHOL			RTH2			RTH3			RSHAOL			RSHA2			RSHA3			RHEE			RTOE			RM5			STRN			XIPH			LACR			LUAOL			LUA2			LUA3			LLAOL			LLA2			LLA3			LWRR			LWRU			RACR			RUAOL			RUA2			RUA3			RLAOL			RLA2			RLA3			RWRR			RWRU			
		X1	Y1	Z1	X2	Y2	Z2	X3	Y3	Z3	X4	Y4	Z4	X5	Y5	Z5	X6	Y6	Z6	X7	Y7	Z7	X8	Y8	Z8	X9	Y9	Z9	X10	Y10	Z10	X11	Y11	Z11	X12	Y12	Z12	X13	Y13	Z13	X14	Y14	Z14	X15	Y15	Z15	X16	Y16	Z16	X17	Y17	Z17	X18	Y18	Z18	X19	Y19	Z19	X20	Y20	Z20	X21	Y21	Z21	X22	Y22	Z22	X23	Y23	Z23	X24	Y24	Z24	X25	Y25	Z25	X26	Y26	Z26	X27	Y27	Z27	X28	Y28	Z28	X29	Y29	Z29	X30	Y30	Z30	X31	Y31	Z31	X32	Y32	Z32	X33	Y33	Z33	X34	Y34	Z34	X35	Y35	Z35	X36	Y36	Z36	X37	Y37	Z37	X38	Y38	Z38	X39	Y39	Z39	X40	Y40	Z40	X41	Y41	Z41	X42	Y42	Z42	X43	Y43	Z43	X44	Y44	Z44	X45	Y45	Z45	X46	Y46	Z46	X47	Y47	Z47	X48	Y48	Z48	X49	Y49	Z49	X50	Y50	Z50	X51	Y51	Z51	X52	Y52	Z52	X53	Y53	Z53	X54	Y54	Z54	X55	Y55	Z55	

1803	9.01	2233.0869140625	221.3161926269533	327.0043640136723	212.2345123291015	223.3281555175781	374.9309387207032	1199.011962890625	957.9545898437501	664.5444335937502	1139.200439453125	1016.392761230469	670.595886230469	1274.218505859375	1001.078308105469	671.8454589843752	1213.517700195312	1084.639404296875	416.024108886719	1216.826171875	1029.641235351562	244.7251434326174	1238.407592773438	1014.224670410156	213.0717620849612	1189.1533203125	1009.880554199219	204.7592773437502	1225.710693359375	976.7142944335939	159.8863677978518	1224.153442382812	933.0505371093751	115.6005172729494	1239.910278320312	929.2108154296876	76.43846130371116	1189.442993164062	924.6780395507814	75.58930969238303	1219.372314453125	888.2755126953126	28.4197807312014	1246.711181640625	793.2046508789064	-58.42356491088844	1195.494995117188	790.4146728515626	-55.24814224243142	1222.076416015625	736.6755371093751	-83.35614776611305	1430.261596679688	523.5289306640626	161.0973815917971	1405.456298828125	450.3031311035157	174.1027679443362	1422.388671875	484.4191284179689	207.4124603271487	1430.259887695312	289.7536621093751	263.7004699707034	1416.524291992188	246.8723602294923	197.6157073974612	1418.439331054688	231.9961090087891	245.680603027344	1308.047973632812	69.99282073974618	107.434883117676	1319.792236328125	46.28328704833992	321.7524414062502	1420.834716796875	29.64383697509774	272.8604736328128	1020.598388671875	521.3834228515626	150.8890991210939	1000.923034667969	534.3873291015626	227.6496887207033	1022.484436035156	494.0162963867188	206.8416595458986	1008.052490234375	315.2998657226563	262.1199035644533	1013.231567382812	237.6406860351563	271.9486083984377	1020.066467285156	263.1087036132813	229.9155883789064	1127.065673828125	63.90328979492195	115.0651855468752	1102.460571289062	46.42306900024421	325.5463562011721	1004.89111328125	40.08119964599616	268.197235107422	1213.177490234375	890.8973999023439	460.4114990234377	1220.73046875	789.1140747070314	357.4781188964846	1378.244018554688	967.3729248046876	461.0390625000002	1466.36328125	821.6620483398439	442.9002075195315	1491.535034179688	762.4889526367189	427.9611816406253	1447.337890625	759.8769531250001	451.8308105468753	1499.3408203125	557.3141479492189	412.780456542969	1522.223388671875	505.1655578613282	357.7281494140628	1500.727783203125	496.5106811523439	402.4404296875003	1499.48193359375	392.7403259277345	398.9453430175784	1424.812622070312	389.8470153808595	372.0587158203128	1054.947631835938	963.5797729492189	454.9801330566408	971.6777343749999	827.0549316406251	426.5648498535158	978.7460937499999	763.1392822265626	435.7708740234377	935.5980834960936	774.0455322265626	408.3041381835939	931.5715332031249	552.1335449218751	388.9765930175783	941.8615722656249	485.5381164550782	431.8440856933595	929.8021240234374	489.4090881347657	383.9603576660158	934.9020385742186	402.2182006835938	405.5648193359377	1009.030944824219	381.8157653808594	368.791473388672	
1804	9.015000000000001	2233.111083984375	221.321990966797	327.2006835937504	212.1995849609374	223.3503570556641	374.7802429199219	1198.905151367187	961.9709472656251	664.1533203125002	1139.087158203125	1020.37744140625	669.9629516601565	1274.158203125	1005.113464355469	671.3514404296877	1213.516723632812	1087.753784179688	415.1679382324221	1216.916381835938	1032.177001953125	244.0481414794924	1238.493041992188	1016.66552734375	212.4665985107424	1189.278198242188	1012.315246582031	204.1412658691409	1225.772216796875	978.9894409179689	159.3842773437502	1224.195678710938	935.1849975585939	115.2576599121096	1239.98974609375	931.2396240234376	76.06336212158226	1189.517944335938	926.7266235351564	75.21046447753928	1219.4697265625	890.2448730468751	28.0613822937014	1246.741821289062	795.1815185546876	-58.31954574584938	1195.527221679688	792.4302368164064	-55.17468261718728	1222.085205078125	738.6482543945314	-83.23506927490212	1430.02197265625	524.8567504882814	160.7862091064456	1405.165405273438	451.5963439941407	173.4766235351565	1422.085083007812	485.5630493164064	206.9387054443362	1430.041015625	290.0724487304689	263.2017211914065	1416.371459960938	247.0316925048829	197.2104644775393	1418.28125	232.2710113525391	245.3056335449221	1308.0927734375	69.94824981689462	107.3919830322268	1319.792236328125	46.29349517822273	321.7407531738284	1420.82958984375	29.64284896850594	272.8731689453128	1020.601318359375	522.8146362304689	150.4182891845705	1000.860717773438	535.4621582031251	227.2217407226564	1022.47119140625	495.2017822265626	206.2539215087893	1007.969116210938	315.5335693359376	261.4882812500002	1013.183471679688	237.8842315673829	271.5010681152345	1020.001647949219	263.2622375488282	229.4095611572268	1127.021118164062	63.88550186157234	115.0358963012697	1102.470581054688	46.42570877075202	325.5417480468752	1004.879089355469	40.07797241210944	268.1878662109377	1213.154907226562	894.1469726562501	460.0959777832034	1220.725341796875	792.0372314453126	357.5129699707034	1378.250732421875	970.6338500976564	460.5346679687502	1466.426879882812	824.8598022460939	442.6091613769534	1491.583129882812	765.6622924804689	427.7498168945315	1447.418334960938	763.0795898437501	451.6758728027347	1499.382446289062	560.4487915039064	412.919616699219	1522.12158203125	508.199188232422	357.9221191406253	1500.739013671875	499.6221313476564	402.706237792969	1499.475219726562	395.847137451172	399.4201660156253	1424.708862304688	392.893768310547	372.8018493652347	1054.903930664062	966.8295288085939	454.4124145507814	971.5846557617186	830.2265625000001	426.1382751464845	978.5953369140624	766.3063354492189	435.4725036621095	935.5098876953124	777.1773681640626	407.9138793945314	931.4246826171874	555.2322387695314	388.8831176757814	941.6004638671874	488.7117919921876	431.8891906738283	929.6849975585936	492.4988098144532	383.9752197265627	934.7879028320311	405.3076782226563	405.7085571289064	1009.225341796875	384.7959594726563	369.5128479003908	
1805	9.02	2233.135498046875	221.3281860351564	327.3974609375004	212.166763305664	223.3714141845703	374.6316528320313	1198.80078125	966.0753173828126	663.7445068359377	1138.9736328125	1024.44873046875	669.308044433594	1274.097412109375	1009.236572265625	670.8386230468752	1213.51904296875	1090.935302734375	414.2899475097659	1217.011108398438	1034.766235351562	243.3578948974612	1238.583862304688	1019.158935546875	211.8482360839846	1189.409301757812	1014.801208496094	203.509948730469	1225.836181640625	981.3131103515626	158.871520996094	1224.240844726562	937.3645019531251	114.909118652344	1240.072509765625	933.3098144531251	75.6844406127932	1189.596435546875	928.8180541992189	74.82690429687521	1219.568481445312	892.2532958984376	27.70428848266624	1246.773803710938	797.1968383789064	-58.21140289306618	1195.562377929688	794.4853515625001	-55.09978103637673	1222.095947265625	740.6578979492189	-83.10812377929665	1429.777099609375	526.2067260742189	160.4638671875003	1404.8720703125	452.9121704101564	172.8305664062503	1421.779296875	486.7278442382814	206.4471435546878	1429.824951171875	290.3973388671876	262.684020996094	1416.218139648438	247.1938934326173	196.7903747558596	1418.125366210938	232.5508270263673	244.9155273437503	1308.13671875	69.90270996093759	107.3485488891604	1319.791259765625	46.30356216430672	321.7295532226565	1420.824340820312	29.64158058166512	272.8864440917972	1020.599914550781	524.2783203125001	149.9329528808596	1000.788940429688	536.5590820312501	226.777786254883	1022.452331542969	496.4139404296876	205.6487579345705	1007.874877929688	315.7744445800782	260.8342285156252	1013.127319335938	238.1349182128907	271.0361633300783	1019.933471679688	263.4193115234376	228.8852539062502	1126.97607421875	63.86661529541023	115.0058517456057	1102.478637695312	46.4272651672364	325.537292480469	1004.866027832031	40.07491302490241	268.1768798828127	1213.135131835938	897.4686279296876	459.7720031738284	1220.725341796875	795.0255737304689	357.5491333007815	1378.260986328125	973.9660644531251	460.0168457031252	1466.499633789062	828.1271972656251	442.3078918457034	1491.641235351562	768.9074707031251	427.5279235839847	1447.51123046875	766.3508300781251	451.5146179199222	1499.437744140625	563.6546020507814	413.0567932128909	1522.026733398438	511.3009033203126	358.113464355469	1500.762451171875	502.8051147460939	402.9722290039065	1499.484130859375	399.025848388672	399.900573730469	1424.620971679688	396.0128173828126	373.5687255859378	1054.862060546875	970.1518554687501	453.8303222656252	971.4934692382811	833.4678344726564	425.6974182128908	978.4411010742186	769.5437622070314	435.164031982422	935.4269409179686	780.3770751953126	407.511199951172	931.2785034179686	558.4020385742189	388.7891235351564	941.3410644531249	491.9639282226563	431.9403686523439	929.5700073242186	495.6596679687501	383.9942016601564	934.6777343749999	408.4646911621094	405.855926513672	1009.418884277344	387.8467407226563	370.2669982910158	
1806	9.025	2233.16015625	221.3346405029298	327.594635009766	212.1376953124999	223.390380859375	374.4848937988282	1198.699462890625	970.2648925781251	663.317077636719	1138.8603515625	1028.604614257812	668.630798339844	1274.03515625	1013.445190429688	670.306091308594	1213.524536132812	1094.182373046875	413.3898925781252	1217.109008789062	1037.406982421875	242.6543121337893	1238.678344726562	1021.703063964844	211.2170562744143	1189.543090820312	1017.33740234375	202.866165161133	1225.902099609375	983.6837158203126	158.3483581542971	1224.288696289062	939.5874633789064	114.5547485351565	1240.157592773438	935.4193115234376	75.3020935058596	1189.677734375	930.9508056640626	74.43872070312521	1219.667846679688	894.2985839843751	27.34922599792503	1246.806518554688	799.2488403320314	-58.09865951538063	1195.599609375	796.5777587890626	-55.02180862426736	1222.108032226562	742.7031250000001	-82.97491455078102	1429.526611328125	527.5791625976564	160.1291656494143	1404.576293945312	454.2489624023439	172.1650390625003	1421.471923828125	487.9124755859376	205.9375000000003	1429.612182617188	290.7278442382814	262.1473388671878	1416.06494140625	247.3583221435548	196.3554229736331	1417.97216796875	232.8349609375001	244.5104217529299	1308.179565429688	69.85650634765634	107.3048400878909	1319.789306640625	46.31345367431648	321.7188720703127	1420.818725585938	29.63910675048837	272.9011535644534	1020.594482421875	525.7723999023439	149.433547973633	1000.7080078125	537.6765747070314	226.3181304931642	1022.428344726562	497.6510009765626	205.026565551758	1007.770385742188	316.0222473144532	260.1581115722658	1013.062438964844	238.3927459716797	270.5543212890627	1019.861877441406	263.5798034667969	228.3433074951174	1126.930541992188	63.84667968750007	114.9752120971682	1102.484741210938	46.42813873291023	325.5326843261721	1004.852172851562	40.07180404663092	268.1647338867189	1213.117919921875	900.8609008789064	459.4395141601565	1220.726806640625	798.0776367187501	357.5866394042971	1378.275146484375	977.3687744140626	459.4850769042971	1466.581298828125	831.4629516601564	441.9969177246097	1491.708984375	772.2239990234376	427.2951660156253	1447.615844726562	769.6900634765626	451.3467712402347	1499.506958007812	566.9309692382814	413.1916809082034	1521.938842773438	514.4694213867189	358.3016357421878	1500.79833984375	506.0588989257814	403.237976074219	1499.507690429688	402.2751770019532	400.3862915039065	1424.548706054688	399.2035217285157	374.3603820800784	1054.822265625	973.5454101562501	453.2335510253908	971.4041137695311	836.7778930664064	425.242401123047	978.2834472656249	772.8498535156251	434.8457946777345	935.3493652343749	783.6433105468751	407.0961303710939	931.1328735351561	561.6416625976564	388.6946105957033	941.0831298828124	495.2939453125001	431.9987792968752	929.4570922851561	498.8904724121094	384.0170898437502	934.5717773437499	411.6878662109376	406.0062255859377	1009.60009765625	390.9744567871094	371.045623779297	
